<svg width="100" height="100" viewBox="0 0 100 100" fill="none" xmlns="http://www.w3.org/2000/svg">
<g id="AdBuying">
<path id="social-graphic-back-icon" fill-rule="evenodd" clip-rule="evenodd" d="M50 0C77.6143 0 100 22.5225 100 50.3056C100 75.4145 81.7157 96.2261 57.8125 100L58.14 99.9452L58.1404 65.0653H69.6459L71.8351 50.5105L71.6478 50.5104L71.6797 50.3056L58.14 50.3052L58.1404 41.0654C58.1404 37.0835 60.0534 33.2022 66.1873 33.2022H72.4138V20.811L72.3924 20.8073C72.369 20.8033 72.3267 20.7962 72.2665 20.7862L72.2656 20.6331L72.2189 20.6253C71.664 20.5324 66.2557 19.6506 61.0732 19.6506C49.6521 19.6506 42.1875 26.6148 42.1875 39.2226V50.3056H29.4922V64.847L30.1722 64.847L30.1724 65.0653L42.187 65.0652L42.1875 100C18.5233 96.2638 0.366247 75.8291 0.00547262 51.0575L0 50.3056C0 22.5225 22.3857 0 50 0Z" fill="url(#paint0_linear)"/>
</g>
<defs>
<linearGradient id="paint0_linear" x1="100" y1="50" x2="0" y2="50" gradientUnits="userSpaceOnUse">
<stop stop-color="#0FB3FA"/>
<stop offset="1" stop-color="#1026E4"/>
</linearGradient>
</defs>
</svg>
