<svg width="115" height="115" viewBox="0 0 115 115" fill="none" xmlns="http://www.w3.org/2000/svg">
<g id="ad buying">
<path id="social-graphic-back-icon" fill-rule="evenodd" clip-rule="evenodd" d="M57.5 0C89.2564 0 115 25.9009 115 57.8514C115 86.7267 93.9731 110.66 66.4844 115L66.861 114.937L66.8615 74.8251H80.0928L82.6104 58.0871L82.395 58.087L82.4316 57.8514L66.861 57.851L66.8615 47.2252C66.8615 42.646 69.0614 38.1825 76.1154 38.1825H83.2759V23.9327L83.2513 23.9284C83.2244 23.9238 83.1757 23.9156 83.1065 23.9041L83.1055 23.7281L83.0518 23.7191C82.4136 23.6123 76.1941 22.5982 70.2342 22.5982C57.1 22.5982 48.5156 30.607 48.5156 45.106V57.8514H33.916V74.5741L34.698 74.574L34.6983 74.8251L48.515 74.825L48.5156 115C21.3018 110.703 0.421185 87.2034 0.00629351 58.7162L0 57.8514C0 25.9009 25.7436 0 57.5 0Z" fill="url(#paint0_linear)"/>
</g>
<defs>
<linearGradient id="paint0_linear" x1="115" y1="57.5" x2="0" y2="57.5" gradientUnits="userSpaceOnUse">
<stop stop-color="#0FB3FA"/>
<stop offset="1" stop-color="#1026E4"/>
</linearGradient>
</defs>
</svg>
