<svg width="100" height="100" viewBox="0 0 100 100" fill="none" xmlns="http://www.w3.org/2000/svg">
<g id="Creative">
<g id="Group">
<path id="Vector" d="M11.7188 92.9883C8.35939 92.0898 5.95704 89.7461 4.84376 86.3281C4.53126 85.332 4.4922 84.043 4.4922 69.1211C4.4922 51.8164 4.47267 52.1484 5.46876 50.1758C5.97657 49.2187 7.08986 47.9102 8.12501 47.1094L8.98439 46.4258L10.3125 47.0313C12.7734 48.1445 14.5703 48.5742 17.5586 48.8281C21.7774 49.1602 25.7813 48.3789 29.6094 46.4844L31.9727 45.3125H38.8086H45.6641L46.7969 45.9961C52.4024 49.375 60.5469 49.8047 66.9727 47.0703L68.418 46.4453L69.2188 47.0313C70.3711 47.8516 71.7774 49.668 72.4024 51.1523L72.9492 52.4414L73.0078 68.7305C73.0469 83.2617 73.0273 85.1367 72.7344 86.1133C71.7383 89.6094 69.082 92.1875 65.6055 93.0469C64.4727 93.3203 61.6406 93.3594 38.6523 93.3398C14.7461 93.3398 12.9102 93.3203 11.7188 92.9883Z" fill="url(#paint0_linear)"/>
<path id="Vector_2" d="M94.9219 89.2578C94.5508 89.1602 91.9922 87.7735 89.2578 86.1914C86.5234 84.5899 82.5391 82.2852 80.4297 81.0547L76.5625 78.8086V69.4336C76.5625 60.7032 76.582 60.0391 76.9141 59.8438C77.8711 59.2383 93.1836 50.3907 93.9453 50C94.5508 49.668 95.1563 49.5313 95.8984 49.5313C97.0703 49.5313 97.8516 49.8633 98.7109 50.7032C99.8828 51.8946 99.8242 50.8399 99.8047 69.1016C99.8047 79.6094 99.7266 86.0938 99.5898 86.5625C99.1016 88.418 96.8555 89.7071 94.9219 89.2578Z" fill="url(#paint1_linear)"/>
<path id="Vector_3" d="M15.918 44.8438C7.34376 43.1836 0.839852 36.0937 0.234383 27.7344C-0.195304 21.8164 1.58204 16.7187 5.54688 12.5391C7.69532 10.2734 10.6641 8.45703 13.6719 7.55859C16.8164 6.62109 19.3164 6.42578 22.3633 6.93359C32.4219 8.57422 39.4922 17.7148 38.4766 27.7344C37.6367 35.8594 31.9922 42.4414 24.0625 44.5703C22.1289 45.0781 17.8906 45.2148 15.918 44.8438ZM21.6797 33.5547C25.7227 32.3437 28.1641 27.9883 27.0703 23.9258C26.1133 20.3125 23.0859 17.9687 19.3555 17.9687C16.7969 17.9687 15.0195 18.75 13.3203 20.6055C10.5274 23.6523 10.7227 28.5937 13.75 31.543C15.8984 33.6328 18.8867 34.3945 21.6797 33.5547Z" fill="url(#paint2_linear)"/>
<path id="Vector_4" d="M55.3711 44.9805C53.9258 44.7656 51.5234 44.043 50.0586 43.3594C45.8399 41.3867 42.832 38.4375 40.8008 34.2773C39.2774 31.1133 38.9649 29.7852 38.9649 25.9766C38.9649 23.2031 39.0234 22.5195 39.4141 21.0938C41.6797 12.832 48.6914 7.16798 57.2266 6.69923C65.8203 6.25001 73.9063 11.9727 76.4453 20.3125C79.7266 31.1523 72.9688 42.4219 61.8164 44.7461C60.1758 45.0977 56.9922 45.1953 55.3711 44.9805ZM60.3516 33.5547C63.7696 32.5195 66.0156 29.4727 66.0156 25.8789C66.0156 24.2578 65.625 22.9688 64.7461 21.582C63.1836 19.1602 60.957 17.9688 57.9883 17.9688C53.8477 17.9688 50.6055 20.8594 50.1172 25C49.4727 30.6055 54.9414 35.1758 60.3516 33.5547Z" fill="url(#paint3_linear)"/>
</g>
</g>
<defs>
<linearGradient id="paint0_linear" x1="4" y1="69.3334" x2="73.3333" y2="69.3334" gradientUnits="userSpaceOnUse">
<stop stop-color="#1026E4"/>
<stop offset="1" stop-color="#0FB3FA"/>
</linearGradient>
<linearGradient id="paint1_linear" x1="76" y1="69.3334" x2="100" y2="69.3334" gradientUnits="userSpaceOnUse">
<stop stop-color="#1026E4"/>
<stop offset="1" stop-color="#0FB3FA"/>
</linearGradient>
<linearGradient id="paint2_linear" x1="2.30508e-06" y1="25.3334" x2="38.6667" y2="25.3334" gradientUnits="userSpaceOnUse">
<stop stop-color="#1026E4"/>
<stop offset="1" stop-color="#0FB3FA"/>
</linearGradient>
<linearGradient id="paint3_linear" x1="38.6667" y1="25.3333" x2="77.3333" y2="25.3333" gradientUnits="userSpaceOnUse">
<stop stop-color="#1026E4"/>
<stop offset="1" stop-color="#0FB3FA"/>
</linearGradient>
</defs>
</svg>
