<svg width="134" height="100" viewBox="0 0 134 100" fill="none" xmlns="http://www.w3.org/2000/svg">
<g id="ad creation">
<path id="creative-graphic-back-icon" fill-rule="evenodd" clip-rule="evenodd" d="M75.4839 28.8462C78.5718 28.8462 81.3167 31.6229 81.3167 35.0938V55.9193L109.795 39.606C111.167 38.5647 112.883 38.5647 114.598 39.606C115.971 40.3002 117 42.0356 117 43.7711V85.4221C117 87.1576 115.971 88.546 114.598 89.5872C112.883 90.6285 111.167 90.6285 109.795 89.5872L81.3167 72.9268V94.0994C81.3167 97.2233 78.5718 100 75.4839 100H34.3109C15.4399 100 0 84.3809 0 65.2908V63.9024C0 44.8124 15.4399 28.8462 34.3109 28.8462H75.4839ZM127.764 29L127.839 29.0065C128.016 29.0378 128.139 29.1693 128.143 29.3531C128.244 32.9229 130.461 36.0968 133.773 37.4131C133.943 37.4798 134.025 37.6406 133.993 37.8182C133.962 37.9957 133.831 38.1191 133.647 38.1233C130.085 38.2276 126.917 40.4519 125.601 43.7718C125.534 43.9431 125.374 44.0247 125.196 43.9935C125.019 43.9622 124.896 43.8307 124.892 43.6469C124.791 40.0771 122.574 36.9032 119.227 35.5807C119.057 35.5139 118.975 35.3531 119.007 35.1756L119.037 35.0761C119.093 34.9534 119.206 34.8738 119.353 34.8704C122.95 34.7724 126.119 32.5481 127.435 29.2282C127.501 29.0569 127.662 28.9753 127.839 29.0065L127.764 29ZM103.756 21L103.839 21.0078C104.059 21.0465 104.216 21.2257 104.251 21.459L104.286 21.8785C104.63 25.0822 106.716 27.9857 109.71 29.2758C109.923 29.3513 110.031 29.5975 109.992 29.8179C109.953 30.0382 109.774 30.196 109.542 30.2307C106.139 30.4637 103.078 32.6127 101.738 35.7089C101.663 35.9228 101.417 36.031 101.197 35.9922C100.977 35.9535 100.82 35.7743 100.786 35.541C100.563 32.0935 98.4448 29.1071 95.29 27.7177C95.0767 27.6422 94.969 27.396 95.0078 27.1757C95.0467 26.9553 95.2321 26.7608 95.4584 26.7628C98.8917 26.573 101.91 24.4543 103.298 21.2911C103.374 21.0772 103.62 20.969 103.839 21.0078L103.756 21ZM120.268 6.00021L120.37 6.01063C120.649 6.05977 120.82 6.25442 120.817 6.50077C120.969 11.4629 124.043 15.9121 128.685 17.7588C128.91 17.8807 129.034 18.1082 128.992 18.3475C128.943 18.6267 128.748 18.7981 128.502 18.7959C123.548 18.9507 119.104 22.0333 117.258 26.6843C117.136 26.9095 116.909 27.034 116.67 26.9919C116.391 26.9427 116.22 26.7481 116.223 26.5017C116.071 21.5396 112.957 17.0833 108.315 15.2367C108.09 15.1148 107.966 14.8873 108.008 14.648L108.044 14.5176C108.124 14.3164 108.293 14.1978 108.498 14.1996C113.492 14.0518 117.935 10.9692 119.782 6.31825C119.864 6.08594 120.091 5.96149 120.37 6.01063L120.268 6.00021ZM62.3361 0C69.2215 0 74.8033 5.59644 74.8033 12.5C74.8033 19.4036 69.2215 25 62.3361 25C55.4506 25 49.8689 19.4036 49.8689 12.5C49.8689 5.59644 55.4506 0 62.3361 0ZM36.4426 9.61539C40.6798 9.61539 44.1148 13.0593 44.1148 17.3077C44.1148 21.556 40.6798 25 36.4426 25C32.2054 25 28.7705 21.556 28.7705 17.3077C28.7705 13.0593 32.2054 9.61539 36.4426 9.61539Z" fill="url(#paint0_linear)"/>
</g>
<defs>
<linearGradient id="paint0_linear" x1="134" y1="50" x2="0" y2="50" gradientUnits="userSpaceOnUse">
<stop stop-color="#0FB3FA"/>
<stop offset="1" stop-color="#1026E4"/>
</linearGradient>
</defs>
</svg>
