<svg width="115" height="123" viewBox="0 0 115 123" fill="none" xmlns="http://www.w3.org/2000/svg">
<g id="growth">
<path id="strategy-graphic-back-icon" fill-rule="evenodd" clip-rule="evenodd" d="M56.4053 15.8621C80.5588 15.8621 100.129 35.1545 100.129 58.9647C100.129 73.1287 93.1929 86.9265 82.5406 95.9622C81.302 97.0611 80.4349 98.5263 80.4349 100.236V115.827C80.4349 117.781 78.9486 119.368 76.9668 119.612L39.436 122.909C37.2064 123.153 35.3485 121.322 35.3485 119.124V110.615C35.3485 109.516 34.3575 108.539 33.2428 108.539H20.1132C16.0257 108.539 12.8052 105.364 12.8052 101.335V83.996C12.8052 83.2634 12.1859 82.5307 11.3188 82.5307H4.87792C1.03814 82.6528 -1.31528 78.3792 0.790409 75.2045L11.9382 58.4763C12.5575 57.4995 12.8052 56.4005 12.9291 55.1795C14.9109 33.2008 33.6144 15.8621 56.4053 15.8621ZM53.8047 28.421C50.7816 28.679 47.9421 29.4786 45.3895 31.1695C45.1401 31.3336 44.8343 31.4415 44.5379 31.5048C43.7874 31.6643 43.0228 31.7487 42.277 31.9199C37.1836 33.0948 33.2901 35.7612 31.2622 40.7468C31.1775 40.9555 30.9563 41.115 30.7822 41.2768C30.0106 41.9921 29.1048 42.6041 28.4837 43.4296C26.3923 46.2062 25.5853 49.3791 25.8935 52.8311C26.1735 55.9618 27.4839 58.5297 30.0929 60.3847C30.2764 60.516 30.4082 60.7599 30.4976 60.978C30.9069 61.984 31.5539 62.7978 32.4173 63.4497C34.2664 64.845 36.3767 65.0702 38.574 64.7254C39.6703 64.5519 40.7431 64.2236 41.8771 63.9515C41.9171 64.0876 41.9759 64.2588 42.0206 64.4323C42.4182 65.9472 43.258 67.1667 44.479 68.1446C45.5918 69.0357 46.8246 69.7299 48.2008 70.0863C51.1134 70.8391 54.0376 71.3996 56.9454 69.8471C58.2817 71.484 60.0885 71.6833 62.0459 71.2237C62.4811 71.1205 62.7234 71.212 63.0081 71.5168C65.2078 73.8619 68.6308 78.4372 70.8281 80.7823C71.3316 81.317 71.8821 81.5351 72.609 81.3475C73.2889 81.1716 73.9853 81.0543 74.6699 80.8902C75.7239 80.6369 76.1262 79.9779 75.9097 78.9086C75.7262 78.0033 74.3476 74.8445 74.1759 73.9815C75.3451 73.815 76.5073 73.7869 77.5824 73.4773C82.1959 72.1336 85.7295 69.5446 87.2304 64.7606C87.9574 62.4413 87.9903 60.2299 86.0776 58.3773C86.0659 58.3655 86.0706 58.3397 86.0588 58.2834C86.24 58.1427 86.4352 57.995 86.6282 57.8449C88.1503 56.6489 89.2207 55.1692 89.4701 53.2063C89.7947 50.6666 89.0984 48.3543 87.6774 46.2859C87.181 45.5613 86.3482 45.0688 85.6918 44.4474C85.4542 44.2223 85.1884 43.9643 85.0896 43.6688C84.5579 42.0835 83.8756 40.5686 82.7464 39.328C80.3114 36.657 77.5565 34.3916 74.2347 32.8673C71.9213 31.8058 69.4981 31.1048 67.0572 30.4609L65.5912 30.0789C64.8579 29.8889 64.1246 29.6986 63.3939 29.4998C60.2485 28.6461 57.0772 28.1419 53.8047 28.421ZM114.996 54.0652C115.08 55.6412 113.91 56.9987 112.349 57.173L112.174 57.1874L106.476 57.4957C106.154 57.5135 105.839 57.475 105.541 57.3957C104.325 57.0719 103.4 56.0046 103.33 54.6888C103.243 53.1095 104.415 51.7497 105.977 51.5756L106.152 51.5611L111.849 51.2583C113.497 51.1729 114.908 52.4309 114.996 54.0652ZM108.471 30.6695C109.196 32.0778 108.68 33.7841 107.33 34.5756L107.171 34.6628L102.086 37.2478C101.398 37.5948 100.64 37.656 99.9513 37.4725C99.1622 37.2624 98.4633 36.7345 98.0611 35.9569C97.3361 34.5486 97.8509 32.8366 99.1999 32.0471L99.3592 31.9602L104.448 29.376C105.919 28.6314 107.719 29.2115 108.471 30.6695ZM10.3858 25.514L10.5423 25.607L15.3599 28.6529C16.7503 29.5344 17.1651 31.367 16.2771 32.7518C15.5577 33.8762 14.2086 34.3524 12.9805 34.0254C12.7654 33.9681 12.5538 33.8854 12.3493 33.7784L12.1472 33.6632L7.33037 30.6146C5.93995 29.7331 5.52968 27.8944 6.41666 26.5137C7.2708 25.1842 9.01445 24.7538 10.3858 25.514ZM92.9373 11.9264C94.1684 12.92 94.4041 14.6856 93.4968 15.9517L93.3825 16.1011L89.7898 20.5078C89.0239 21.4504 87.7978 21.8031 86.6905 21.5082C86.2994 21.404 85.9242 21.2194 85.5896 20.9492C84.3558 19.9549 84.1226 18.1899 85.0307 16.9215L85.1451 16.7717L88.7343 12.3671C89.7721 11.0923 91.6524 10.8934 92.9373 11.9264ZM27.4624 9.77515L27.5718 9.92852L30.7268 14.6569C31.6397 16.0276 31.2643 17.8674 29.887 18.7757C29.1438 19.2628 28.2598 19.3779 27.4612 19.1653C26.8474 19.0018 26.2862 18.6477 25.8748 18.1202L25.7433 17.938L22.5863 13.2062C21.6761 11.8362 22.0543 9.99719 23.4274 9.09358C24.7507 8.22412 26.5174 8.5342 27.4624 9.77515ZM71.0834 1.06153C72.6223 1.47135 73.5561 2.99941 73.238 4.52791L73.1975 4.69769L71.7205 10.1761C71.2936 11.7596 69.6556 12.7022 68.0601 12.2759C66.5199 11.8657 65.5864 10.3363 65.9044 8.80776L65.945 8.63797L67.4219 3.15959C67.8492 1.57468 69.4862 0.636171 71.0834 1.06153ZM49.5075 2.30449L49.5415 2.47591L50.4953 8.06997C50.7711 9.6873 49.6752 11.2212 48.0449 11.4911C47.6088 11.5648 47.1789 11.5394 46.7768 11.4324C45.7414 11.1566 44.9015 10.3401 44.6414 9.25387L44.6016 9.05943L43.6485 3.46265C43.3727 1.84532 44.4652 0.313397 46.0989 0.0415309C47.6657 -0.220111 49.1587 0.780722 49.5075 2.30449Z" fill="url(#paint0_linear)"/>
</g>
<defs>
<linearGradient id="paint0_linear" x1="115" y1="61.4655" x2="0" y2="61.4655" gradientUnits="userSpaceOnUse">
<stop stop-color="#0FB3FA"/>
<stop offset="1" stop-color="#1026E4"/>
</linearGradient>
</defs>
</svg>
