<svg width="94" height="120" viewBox="0 0 94 120" fill="none" xmlns="http://www.w3.org/2000/svg">
<g id="notion">
<path id="statlas-graphic-back-icon" fill-rule="evenodd" clip-rule="evenodd" d="M46.615 120C46.255 119.998 45.8988 119.927 45.566 119.79C44.5417 119.365 43.8741 118.365 43.8741 117.257V90.6056C43.8744 89.8805 44.1614 89.185 44.6727 88.6707L83.8805 49.3451H61.1077L35.1913 75.2386C34.6756 75.7528 33.9774 76.0422 33.249 76.0436H2.70703C1.99591 76.0308 1.31763 75.7421 0.815492 75.2386C0.556342 74.9841 0.352455 74.679 0.216563 74.3422C0.0821037 74.0274 0.00861693 73.6899 0 73.3477V46.6018C0 45.8743 0.289238 45.1766 0.805341 44.6636L44.6659 0.805378C45.4504 0.0197157 46.6312 -0.215911 47.6573 0.208455C48.6834 0.632821 49.3525 1.63353 49.3524 2.74358V29.4421C49.3518 30.1704 49.0621 30.8686 48.5471 31.3837L9.36969 70.5571H32.1256L58.0284 44.6636C58.5437 44.1488 59.2422 43.8593 59.9707 43.8586H90.5398C90.8824 43.8656 91.2207 43.9356 91.538 44.0649C91.861 44.1978 92.1551 44.392 92.4043 44.6366C92.4164 44.647 92.4277 44.6583 92.4381 44.6704C92.9405 45.184 93.2222 45.8734 93.2231 46.5917V73.3883C93.2231 74.1152 92.9351 74.8124 92.4212 75.3265L48.5572 119.195C48.042 119.71 47.3435 120 46.615 120ZM49.5868 91.8185V111.074L89.2562 71.9592V52.562L49.5868 91.8185ZM3.96694 48.1008V67.438L43.6364 28.2629V8.92562L3.96694 48.1008Z" fill="url(#paint0_linear)"/>
</g>
<defs>
<linearGradient id="paint0_linear" x1="93.2231" y1="60" x2="0" y2="60" gradientUnits="userSpaceOnUse">
<stop stop-color="#0FB3FA"/>
<stop offset="1" stop-color="#1026E4"/>
</linearGradient>
</defs>
</svg>
