<svg width="100" height="100" viewBox="0 0 100 100" fill="none" xmlns="http://www.w3.org/2000/svg">
<g id="Retention">
<g id="Group">
<path id="Vector" d="M26.3086 99.3359C24.8242 98.7305 23.75 97.9687 22.9492 96.9727C20.1172 93.5156 20.3711 88.75 23.5351 85.7617C27.6172 81.8945 34.1797 83.125 36.582 88.2422C37.6953 90.6055 37.5195 93.7695 36.1523 95.9375C35.0586 97.6562 33.3984 98.9453 31.5234 99.5117C30.0195 99.9609 27.6562 99.8828 26.3086 99.3359Z" fill="url(#paint0_linear)"/>
<path id="Vector_2" d="M76.3086 99.3359C74.8243 98.7305 73.75 97.9687 72.9493 96.9727C70.1172 93.5156 70.3711 88.75 73.5352 85.7617C77.6172 81.8945 84.1797 83.125 86.5821 88.2422C87.6954 90.6055 87.5196 93.7695 86.1524 95.9375C85.0586 97.6562 83.3985 98.9453 81.5235 99.5117C80.0196 99.9609 77.6563 99.8828 76.3086 99.3359Z" fill="url(#paint1_linear)"/>
<path id="Vector_3" d="M24.9023 78.8281C22.4609 78.2422 20.4492 76.6016 19.3359 74.3359C18.7695 73.2031 18.6523 72.7344 18.5937 71.2891C18.4375 68.0273 19.082 66.875 23.6523 62.207L27.1094 58.6914L20.5273 37.6953L13.9648 16.6992L9.70703 16.6016L5.42969 16.5039L4.86328 15.8594L4.29688 15.2344V12.5V9.76562L4.86328 9.14062L5.42969 8.49609L11.3086 8.4375C15.2539 8.39844 17.4609 8.45703 18.0078 8.61328C19.2383 8.92578 20.5078 10.3125 20.957 11.8164C21.1523 12.4609 21.582 13.8477 21.9141 14.9023L22.5195 16.7969H25.1758C27.4805 16.7969 27.9102 16.8555 28.4766 17.1875C28.8086 17.4023 29.1211 17.6758 29.1406 17.8125C29.1602 17.9492 29.1797 19.9609 29.1992 22.2656C29.2187 25.4688 29.2969 26.8555 29.5703 28.1055C31.1914 35.7812 35.8398 42.3437 42.4805 46.3281C45.0195 47.8711 48.7891 49.2188 51.9336 49.7266C54.082 50.0781 58.418 50.0781 60.5664 49.7266C71.1914 48.0078 79.8633 40.0781 82.5195 29.6875C83.2617 26.7578 83.457 24.6875 83.3203 21.25C83.1641 17.8711 83.2226 17.5781 84.1992 17.0703C84.6875 16.8359 85.3516 16.7773 87.7539 16.8359C90.4883 16.8945 90.8203 16.9336 91.8164 17.4023C93.2422 18.0664 94.4336 19.2773 95.0781 20.6836C95.7812 22.1875 95.8984 24.4531 95.3516 25.9766C95.1562 26.5625 91.6211 34.1992 87.5 42.9297C80.4297 57.9492 79.9609 58.8476 78.9844 59.8437C77.7148 61.1523 75.9375 62.0312 74.1211 62.3047C73.3008 62.4219 65.2539 62.5 53.8086 62.5H34.8633L30.8203 66.543C28.5742 68.7695 26.7578 70.6641 26.7578 70.7422C26.7578 70.8398 40 70.8984 56.1719 70.8984C88.3594 70.8984 86.5039 70.8398 87.1289 72.0117C87.5195 72.7148 87.5195 77.2851 87.1289 77.9883C86.5039 79.1797 88.418 79.1016 55.7227 79.082C32.9883 79.082 25.6445 79.0039 24.9023 78.8281Z" fill="url(#paint2_linear)"/>
<path id="Vector_4" d="M52.9297 45.4883C45.3125 44.2969 38.9062 39.4922 35.6445 32.5391C31.6406 24.0625 33.2617 14.1016 39.7266 7.24609C42.9492 3.86719 47.168 1.52344 51.7773 0.585937C54.3555 0.0585938 58.1445 0.0585938 60.7226 0.585937C72.168 2.91016 80.0781 13.5352 78.9258 25.0391C77.8711 35.5859 69.9414 43.9062 59.4336 45.4883C57.8125 45.7422 54.4922 45.7422 52.9297 45.4883ZM63.6719 30.9961C64.6094 30.2539 64.8828 29.1406 64.375 28.1641C64.2187 27.8711 62.8125 26.3672 61.25 24.8047L58.3984 21.9727V15.918C58.3984 10.293 58.3789 9.82422 58.0273 9.25781C57.2461 7.96875 55.2539 7.96875 54.4726 9.25781C54.1211 9.82422 54.1016 10.3125 54.1016 16.7187V23.5742L54.668 24.3359C54.9805 24.7461 56.6211 26.4844 58.3398 28.1836L61.4844 31.25H62.4219C62.9492 31.25 63.5156 31.1328 63.6719 30.9961Z" fill="url(#paint3_linear)"/>
</g>
</g>
<defs>
<linearGradient id="paint0_linear" x1="21.3333" y1="92" x2="37.3333" y2="92" gradientUnits="userSpaceOnUse">
<stop stop-color="#1026E4"/>
<stop offset="1" stop-color="#0FB3FA"/>
</linearGradient>
<linearGradient id="paint1_linear" x1="72" y1="92" x2="86.6667" y2="92" gradientUnits="userSpaceOnUse">
<stop stop-color="#1026E4"/>
<stop offset="1" stop-color="#0FB3FA"/>
</linearGradient>
<linearGradient id="paint2_linear" x1="22.6667" y1="44" x2="86" y2="44" gradientUnits="userSpaceOnUse">
<stop stop-color="#1026E4"/>
<stop offset="1" stop-color="#0FB3FA"/>
</linearGradient>
<linearGradient id="paint3_linear" x1="33.3333" y1="22.6667" x2="78.6667" y2="22.6667" gradientUnits="userSpaceOnUse">
<stop stop-color="#1026E4"/>
<stop offset="1" stop-color="#0FB3FA"/>
</linearGradient>
</defs>
</svg>
