<svg width="115" height="109" viewBox="0 0 115 109" fill="none" xmlns="http://www.w3.org/2000/svg">
<g id="retention">
<path id="retention-graphic-back-icon" fill-rule="evenodd" clip-rule="evenodd" d="M41.4129 86C47.9106 86 53 91.0876 53 97.588C53 103.983 47.9077 109 41.4129 109C35.1213 109 30 103.876 30 97.588C30 91.1964 35.1213 86 41.4129 86ZM95.5725 86C101.982 86 107 91.0876 107 97.588C107 103.876 101.877 109 95.5725 109C89.1857 109 84 103.876 84 97.588C84 91.1964 89.1857 86 95.5725 86ZM14.3641 4C16.9214 4 19.2347 5.66589 20.122 8.08931L24.2221 19.3187L41.7555 66.4374L94.8215 60.1945L102.513 25.3107L102.518 25.2863C102.599 24.8762 103.763 19.4408 108.845 19.3187C110.723 19.3187 112.471 20.1063 113.641 21.5845C114.814 23.0501 115.257 24.9265 114.855 26.7736L105.877 67.5771C105.306 70.1494 103.187 72.0874 100.604 72.4005L38.4107 79.948C38.1415 79.9731 37.9066 80 37.6771 80C35.1243 80 32.8102 78.396 31.9201 75.9749L10.0895 16.446H6.14015C2.75563 16.446 0 13.645 0 10.223C0 6.80068 2.75563 4 6.14015 4H14.3641ZM63.7578 0C72.2996 0 79.871 3.82827 84.9617 9.83741L91 3.5544V23.874L70.6415 23.8829L77.3179 17.7011C74.2621 13.5992 69.3653 10.9244 63.8336 10.9244C54.5957 10.9244 47.0873 18.3612 47.0873 27.5029C47.0873 36.6371 54.5887 44.0699 63.8293 44.0699C71.105 44.0699 77.3173 39.4498 79.6166 33.0143L89.8173 37.2298C85.8532 47.6193 75.6991 55 63.816 55C48.4647 55 36 42.6903 36 27.5029C36 12.3109 48.4037 0 63.7578 0Z" fill="url(#paint0_linear)"/>
</g>
<defs>
<linearGradient id="paint0_linear" x1="115" y1="54.5" x2="0" y2="54.5" gradientUnits="userSpaceOnUse">
<stop stop-color="#0FB3FA"/>
<stop offset="1" stop-color="#1026E4"/>
</linearGradient>
</defs>
</svg>
