<svg width="115" height="116" viewBox="0 0 115 116" fill="none" xmlns="http://www.w3.org/2000/svg">
<g id="seo">
<path id="sem-graphic-back-icon" fill-rule="evenodd" clip-rule="evenodd" d="M59.0951 0C74.8583 0 88.0272 5.74372 98.1466 15.1014L81.6697 31.1064C77.453 27.1694 70.058 22.4583 59.0951 22.4583C43.6562 22.4583 30.5526 32.5906 25.8167 46.5948L25.5572 46.3939C24.4519 49.9464 23.7832 53.7349 23.7832 57.6445C23.7832 61.73 24.5137 65.6842 25.7759 69.3744L25.72 69.416L25.9627 69.3966C30.6069 83.2608 43.5512 93.3296 58.8541 93.5296L59.3186 93.5326C67.5652 93.5326 73.9517 91.4017 78.8071 88.2824L78.8971 87.6746C86.7457 82.1626 90.2775 73.9596 90.9313 68.5127H58.4914V46.5948H113.757C114.607 50.2697 115 53.8133 115 58.6694C115 76.6501 108.59 91.8091 97.4718 102.112L98.1466 101.923C88.4392 110.828 75.1492 115.991 59.3186 115.991C36.3864 115.991 16.5814 102.955 6.93966 83.9814L7.012 83.779L6.37744 84.2672C2.43471 76.4448 0.126948 67.687 0.00508357 58.4181L0 57.6445C0 48.0892 2.32519 39.061 6.37744 31.0212L6.98885 30.7328L7.42597 31.0698C17.1957 12.607 36.6397 0 59.0951 0Z" fill="url(#paint0_linear)"/>
</g>
<defs>
<linearGradient id="paint0_linear" x1="115" y1="57.9957" x2="0" y2="57.9957" gradientUnits="userSpaceOnUse">
<stop stop-color="#0FB3FA"/>
<stop offset="1" stop-color="#1026E4"/>
</linearGradient>
</defs>
</svg>
