<svg width="100" height="100" viewBox="0 0 100 100" fill="none" xmlns="http://www.w3.org/2000/svg">
<g id="seo">
<path id="sem-graphic-back-icon" fill-rule="evenodd" clip-rule="evenodd" d="M51.3871 0C65.0941 0 76.5454 4.95185 85.3448 13.0194L71.0171 26.8178C67.3504 23.4237 60.92 19.3621 51.3871 19.3621C37.9619 19.3621 26.5675 28.0974 22.4493 40.1709L22.2236 39.9977C21.2626 43.0604 20.681 46.3266 20.681 49.6972C20.681 53.2194 21.3162 56.6285 22.4138 59.81L22.3652 59.8458L22.5762 59.8291C26.6147 71.7819 37.8706 80.4625 51.1775 80.6349L51.5814 80.6376C58.7523 80.6376 64.3058 78.8004 68.5279 76.1111L68.6062 75.5872C75.431 70.8351 78.5022 63.763 79.0707 59.0671H50.8621V40.1709H98.9194C99.6585 43.3391 100 46.3942 100 50.5808C100 66.0826 94.4263 79.1517 84.7581 88.0342L85.3448 87.8708C76.9037 95.5487 65.3472 100 51.5814 100C31.6403 100 14.4186 88.7607 6.03448 72.4031L6.09739 72.2286L5.5456 72.6496C2.11714 65.9056 0.110389 58.3552 0.0044205 50.3641L0 49.6972C0 41.4593 2.0219 33.6757 5.5456 26.7444L6.07726 26.4957L6.45737 26.7863C14.9528 10.8689 31.8606 0 51.3871 0Z" fill="url(#paint0_linear)"/>
</g>
<defs>
<linearGradient id="paint0_linear" x1="100" y1="50" x2="0" y2="50" gradientUnits="userSpaceOnUse">
<stop stop-color="#0FB3FA"/>
<stop offset="1" stop-color="#1026E4"/>
</linearGradient>
</defs>
</svg>
