<svg width="100" height="100" viewBox="0 0 100 100" fill="none" xmlns="http://www.w3.org/2000/svg">
<g id="WachstumsStrategie">
<g id="Group">
<path id="Vector" d="M45.0512 98.6255C39.7611 98.11 33.7884 96.3918 28.8396 93.9175C14.4027 86.7354 4.67578 73.5052 2.15018 57.5945C1.3652 52.4743 1.67236 43.6083 2.83277 39.0035C4.40274 32.7835 6.314 28.488 9.93175 22.9897C12.355 19.3127 18.0887 13.3677 21.5358 10.8935C26.8259 7.14779 32.901 4.36428 39.1809 2.88662C44.1297 1.68387 52.6621 1.37459 57.4403 2.19933C67.4403 3.91755 75.8362 8.14435 83.0034 15.0516C92.0137 23.7801 96.8259 34.0206 97.9522 46.8729C99.2833 62.2337 92.4915 78.0069 80.2389 87.9038C70.1024 96.1169 57.7816 99.8626 45.0512 98.6255ZM59.7952 89.4158C66.8942 87.5602 72.3208 84.5017 77.7816 79.2096C86.5529 70.6873 90.9215 58.9691 89.8294 47.0103C88.4642 32.2337 80.5461 20.4811 67.6451 13.9519C61.7747 10.9966 56.3481 9.79384 49.1468 9.86257C44.9147 9.93129 43.6178 10.1031 40.1365 10.9622C20.9556 15.8419 8.05462 33.8488 9.86349 53.299C10.4096 59.1409 11.57 63.3677 13.9932 68.2131C16.4164 73.0928 18.43 75.9107 22.116 79.4502C27.884 85.0172 35.5973 88.9347 42.7304 90C44.0956 90.2062 45.5973 90.4468 46.0751 90.5155C46.5529 90.6186 48.942 90.6186 51.3652 90.5499C54.8806 90.4468 56.6212 90.2062 59.7952 89.4158Z" fill="url(#paint0_linear)"/>
<path id="Vector_2" d="M29.4198 79.2784C28.9078 78.6598 28.942 78.5224 33.6177 70.1031C35.3242 66.976 36.9624 64.055 37.2014 63.6083L37.6109 62.7835L29.3857 62.9554L21.1604 63.1272V61.9588C21.1604 59.7251 23.3106 57.1134 26.5188 55.5327C29.0102 54.2612 31.0921 53.9519 37.1672 53.9519H42.4915L43.0375 52.9897C43.3447 52.4743 44.3003 50.653 45.2218 49.0035L46.8601 45.9794L36.1433 46.1169C30.2389 46.1856 25.1877 46.3918 24.8805 46.5292C23.959 46.9416 23.2423 45.9107 23.5153 44.6048C23.9249 42.7835 24.471 42.0275 26.3822 40.5155C29.8976 37.6976 29.9659 37.6633 41.3993 37.4571L51.6041 37.2852L54.1638 32.6461C59.0102 23.8488 59.2491 23.5052 60.8532 22.7148C62.5256 21.8901 67.1672 21.1684 68.6348 21.4777C69.1809 21.6151 69.6246 21.9244 69.6246 22.1993C69.6246 22.5086 67.9522 25.7732 65.9044 29.4846C63.8225 33.1959 62.0478 36.5636 61.9112 36.9072C61.6723 37.5602 61.8771 37.5602 68.9078 37.354C76.9966 37.1478 76.8601 37.1134 76.1433 39.4846C75.6314 41.2371 73.3106 43.4708 70.6484 44.7767C68.4641 45.842 68.3276 45.8763 62.5938 45.9794L56.7235 46.1169L54.744 49.7595C53.6177 51.7526 52.6621 53.5395 52.5938 53.7114C52.5256 53.9176 56.6553 53.9863 63.2764 53.8832L74.0614 53.7114V54.6392C74.0614 56.9416 72.3891 59.0722 69.0785 61.031C66.4164 62.6117 64.4027 62.8866 55.5973 62.8866H47.5085L43.7201 69.8626C41.6382 73.7114 39.6587 77.1134 39.3174 77.4227C38.0205 78.6255 35.3583 79.4846 32.5938 79.6564C30.4095 79.7595 29.7611 79.6907 29.4198 79.2784Z" fill="url(#paint1_linear)"/>
</g>
</g>
<defs>
<linearGradient id="paint0_linear" x1="98.6667" y1="50.6667" x2="1.33333" y2="50.6667" gradientUnits="userSpaceOnUse">
<stop stop-color="#0FB3FA"/>
<stop offset="1" stop-color="#1026E4"/>
</linearGradient>
<linearGradient id="paint1_linear" x1="94.6666" y1="50.6667" x2="6.66665" y2="50.6667" gradientUnits="userSpaceOnUse">
<stop stop-color="#0FB3FA"/>
<stop offset="1" stop-color="#1026E4"/>
</linearGradient>
</defs>
</svg>
